<?xml version="1.0" encoding="utf-8"?>
<!-- Generator: Adobe Illustrator 22.1.0, SVG Export Plug-In . SVG Version: 6.00 Build 0)  -->
<svg version="1.1" id="Layer_1" xmlns="http://www.w3.org/2000/svg" xmlns:xlink="http://www.w3.org/1999/xlink" x="0px" y="0px"
	 viewBox="0 0 447 143" style="enable-background:new 0 0 447 143;" xml:space="preserve">
<style type="text/css">
	.st0{fill:#585955;}
	.st1{fill:#E1251B;}
</style>
<g>
	<path class="st0" d="M280.6,12.9v17.5h18.1V22L280.6,12.9z"/>
	<path class="st1" d="M331.2,132.4H326l-1.2-4.3h-7.4l-1.2,4.3h-5.1l6.7-22h6.6L331.2,132.4z M318.6,124h5l-2.5-9.2L318.6,124z"/>
	<path class="st1" d="M351.4,132.4v-22h13.8v4.4h-8.9v4h8.2v4.4h-8.2v4.8h8.9v4.4H351.4z"/>
	<path class="st1" d="M394,125.6h-2.9v6.8h-4.9v-22h9.1c5.3,0,7.3,2.1,7.3,6.2v2.7c0,2.7-1,4.6-3.2,5.5l5.3,7.5h-5.9L394,125.6z
		 M397.6,117.1c0-1.6-0.6-2.3-2.6-2.3h-3.9v6.5h3.9c2.1,0,2.6-0.8,2.6-2.4V117.1z"/>
	<path class="st1" d="M441,126c0,3.3-2.3,6.7-8.5,6.7s-8.5-3.4-8.5-6.7v-9.2c0-3.3,2.3-6.7,8.5-6.7s8.5,3.4,8.5,6.7V126z
		 M436.1,117.3c0-1.7-1.1-2.8-3.6-2.8c-2.5,0-3.6,1.1-3.6,2.8v8.3c0,1.7,1.1,2.8,3.6,2.8c2.5,0,3.6-1.1,3.6-2.8V117.3z"/>
	<path class="st0" d="M197.4,32.3V15.6h-52.5v83.5h52.5V82.5h-33.7V64.3h31.1V47.6h-31.1V32.3H197.4z"/>
	<path class="st0" d="M251.5,36.8c-7,0-16.8,2.3-24.3,5.9L211.9,35v64.1h18.1V58.8c3.9-2.1,9.9-4.4,13.2-4.4c3.1,0,4.4,1.6,4.4,4.4
		v40.4h18.1V56.4C265.5,44.6,261.9,36.8,251.5,36.8z"/>
	<path class="st0" d="M362.1,74.9V62.1c0-13.3-4.4-25.3-24.7-25.3c-20.3,0-26.2,11.3-26.2,24.4v14.3c0,15,7.5,24.8,27.3,24.8
		c8.5,0,17.4-1.9,23-3.9L358.8,83c-5.4,1.6-12.9,2.6-18.6,2.6c-8.3,0-11-1.9-11-8.9v-1.8H362.1z M329.2,58.8c0-4.3,2-7.8,8.3-7.8
		c6.3,0,7.5,3.5,7.5,7.8v2.6h-15.8V58.8z"/>
	<path class="st0" d="M399.1,85.6c-2.3,0-3.7-0.9-3.7-3.4V52.6h12.9l1-14.5h-13.9v-9L377.3,20v18.1H369v14.5h8.3v32.1
		c0,11.3,6.8,15.7,18.4,15.7c4.1,0,9-0.9,13.1-2.3l-2.1-13.7C404,85.3,401.1,85.6,399.1,85.6z"/>
	<polygon class="st0" points="298.6,38.1 298.6,119.3 272,132.7 272,125.2 280.6,113.8 280.6,38.1 	"/>
	<g>
		<path class="st1" d="M25.7,59.1L25.7,59.1c2.9,1.3,6,2.8,9.2,4.5c0.3,3.9,0.8,7.5,1.6,10.9c0,0,0,0,0,0l-2.9,1.7
			c-4.1-3-9-6.1-14.3-9.2C14,63.8,8.8,61.1,4.1,59v-3.3c4.7-2.1,9.9-4.7,15.3-7.8c5.3-3.1,10.1-6.2,14.3-9.2l2.9,1.7c0,0,0,0,0,0
			c-0.8,3.4-1.3,7-1.6,10.9c-3.2,1.7-6.3,3.2-9.2,4.5h0V59.1z"/>
		<path class="st0" d="M85.4,57.4c0,4.1,0.2,8.1,0.4,11.9l-41.7-4.8c-0.2-2.3-0.3-4.7-0.3-7.1c0-2.4,0.1-4.8,0.3-7.1l41.7-4.8
			C85.5,49.3,85.4,53.3,85.4,57.4z"/>
		<path class="st0" d="M95.7,106.8l-2.9,1.7L50.4,87.1c-2.4-3.9-4.2-9.4-5.3-15.7l43,13.8C89.7,93.3,92.9,102,95.7,106.8z"/>
		<path class="st0" d="M95.7,8l-2.9-1.7L50.4,27.6c-2.4,3.9-4.2,9.4-5.3,15.7l43-13.8C89.7,21.5,92.9,12.7,95.7,8z"/>
	</g>
</g>
<g>
	<path class="st0" d="M280.6,12.9v17.5h18.1V22L280.6,12.9z"/>
	<path class="st1" d="M331.2,132.4H326l-1.2-4.3h-7.4l-1.2,4.3h-5.1l6.7-22h6.6L331.2,132.4z M318.6,124h5l-2.5-9.2L318.6,124z"/>
	<path class="st1" d="M351.4,132.4v-22h13.8v4.4h-8.9v4h8.2v4.4h-8.2v4.8h8.9v4.4H351.4z"/>
	<path class="st1" d="M394,125.6h-2.9v6.8h-4.9v-22h9.1c5.3,0,7.3,2.1,7.3,6.2v2.7c0,2.7-1,4.6-3.2,5.5l5.3,7.5h-5.9L394,125.6z
		 M397.6,117.1c0-1.6-0.6-2.3-2.6-2.3h-3.9v6.5h3.9c2.1,0,2.6-0.8,2.6-2.4V117.1z"/>
	<path class="st1" d="M441,126c0,3.3-2.3,6.7-8.5,6.7s-8.5-3.4-8.5-6.7v-9.2c0-3.3,2.3-6.7,8.5-6.7s8.5,3.4,8.5,6.7V126z
		 M436.1,117.3c0-1.7-1.1-2.8-3.6-2.8c-2.5,0-3.6,1.1-3.6,2.8v8.3c0,1.7,1.1,2.8,3.6,2.8c2.5,0,3.6-1.1,3.6-2.8V117.3z"/>
	<path class="st0" d="M197.4,32.3V15.6h-52.5v83.5h52.5V82.5h-33.7V64.3h31.1V47.6h-31.1V32.3H197.4z"/>
	<path class="st0" d="M251.5,36.8c-7,0-16.8,2.3-24.3,5.9L211.9,35v64.1h18.1V58.8c3.9-2.1,9.9-4.4,13.2-4.4c3.1,0,4.4,1.6,4.4,4.4
		v40.4h18.1V56.4C265.5,44.6,261.9,36.8,251.5,36.8z"/>
	<path class="st0" d="M362.1,74.9V62.1c0-13.3-4.4-25.3-24.7-25.3c-20.3,0-26.2,11.3-26.2,24.4v14.3c0,15,7.5,24.8,27.3,24.8
		c8.5,0,17.4-1.9,23-3.9L358.8,83c-5.4,1.6-12.9,2.6-18.6,2.6c-8.3,0-11-1.9-11-8.9v-1.8H362.1z M329.2,58.8c0-4.3,2-7.8,8.3-7.8
		c6.3,0,7.5,3.5,7.5,7.8v2.6h-15.8V58.8z"/>
	<path class="st0" d="M399.1,85.6c-2.3,0-3.7-0.9-3.7-3.4V52.6h12.9l1-14.5h-13.9v-9L377.3,20v18.1H369v14.5h8.3v32.1
		c0,11.3,6.8,15.7,18.4,15.7c4.1,0,9-0.9,13.1-2.3l-2.1-13.7C404,85.3,401.1,85.6,399.1,85.6z"/>
	<polygon class="st0" points="298.6,38.1 298.6,119.3 272,132.7 272,125.2 280.6,113.8 280.6,38.1 	"/>
	<g>
		<path class="st1" d="M25.7,59.1L25.7,59.1c2.9,1.3,6,2.8,9.2,4.5c0.3,3.9,0.8,7.5,1.6,10.9c0,0,0,0,0,0l-2.9,1.7
			c-4.1-3-9-6.1-14.3-9.2C14,63.8,8.8,61.1,4.1,59v-3.3c4.7-2.1,9.9-4.7,15.3-7.8c5.3-3.1,10.1-6.2,14.3-9.2l2.9,1.7c0,0,0,0,0,0
			c-0.8,3.4-1.3,7-1.6,10.9c-3.2,1.7-6.3,3.2-9.2,4.5h0V59.1z"/>
		<path class="st0" d="M85.4,57.4c0,4.1,0.2,8.1,0.4,11.9l-41.7-4.8c-0.2-2.3-0.3-4.7-0.3-7.1c0-2.4,0.1-4.8,0.3-7.1l41.7-4.8
			C85.5,49.3,85.4,53.3,85.4,57.4z"/>
		<path class="st0" d="M95.7,106.8l-2.9,1.7L50.4,87.1c-2.4-3.9-4.2-9.4-5.3-15.7l43,13.8C89.7,93.3,92.9,102,95.7,106.8z"/>
		<path class="st0" d="M95.7,8l-2.9-1.7L50.4,27.6c-2.4,3.9-4.2,9.4-5.3,15.7l43-13.8C89.7,21.5,92.9,12.7,95.7,8z"/>
	</g>
</g>
</svg>
